<svg width="77" height="26" viewBox="0 0 77 26" fill="none" xmlns="http://www.w3.org/2000/svg">
<g clip-path="url(#clip0_7_164)">
<path d="M71.9121 8.22687L67.6597 7.21792L66.9003 6.90747L47.3845 7.0627V16.6866L71.9121 16.7642V8.22687Z" fill="#232323"/>
<path d="M63.9392 15.8328C64.0614 15.5023 64.1045 15.1467 64.0648 14.7956C64.0252 14.4446 63.904 14.1084 63.7114 13.8149C63.5135 13.5725 63.2709 13.3723 62.9972 13.2258C62.7236 13.0793 62.4244 12.9894 62.1167 12.9612L48.9037 12.806C48.8278 12.806 48.7518 12.7284 48.6759 12.7284C48.6582 12.7148 48.6439 12.6972 48.634 12.677C48.6241 12.6568 48.6189 12.6345 48.6189 12.612C48.6189 12.5894 48.6241 12.5671 48.634 12.5469C48.6439 12.5267 48.6582 12.5091 48.6759 12.4955C48.7518 12.3403 48.8278 12.2627 48.9796 12.2627L62.2686 12.1075C63.1123 12.0118 63.9157 11.6881 64.5964 11.1698C65.2771 10.6514 65.8104 9.95709 66.1414 9.15822L66.9008 7.14031C66.9008 7.0627 66.9767 6.98509 66.9008 6.90747C66.4879 5.02804 65.4861 3.33772 64.0475 2.09336C62.6089 0.849005 60.8121 0.118642 58.9303 0.0132537C57.0485 -0.0921344 55.1844 0.433214 53.6214 1.50947C52.0584 2.58572 50.8819 4.15405 50.2706 5.97613C49.477 5.39686 48.509 5.12205 47.5368 5.20001C46.6446 5.30169 45.8128 5.71051 45.178 6.3593C44.5432 7.0081 44.1432 7.85828 44.0437 8.77016C43.9932 9.23692 44.0188 9.70902 44.1197 10.1672C42.6761 10.208 41.305 10.8228 40.2981 11.8809C39.2912 12.939 38.728 14.3568 38.7282 15.8328C38.7157 16.1196 38.7412 16.4068 38.8041 16.6866C38.8076 16.7472 38.8327 16.8043 38.8747 16.8473C38.9167 16.8902 38.9726 16.9158 39.0319 16.9194H63.4077C63.5595 16.9194 63.7114 16.8418 63.7114 16.6866L63.9392 15.8328Z" fill="#F48120"/>
<path d="M68.1149 7.14032H67.7352C67.6593 7.14032 67.5834 7.21793 67.5074 7.29554L66.9759 9.15823C66.8537 9.48879 66.8106 9.84441 66.8503 10.1954C66.8899 10.5465 67.0111 10.8827 67.2037 11.1761C67.4015 11.4186 67.6442 11.6188 67.9179 11.7653C68.1915 11.9118 68.4907 12.0017 68.7984 12.0299L71.608 12.1851C71.684 12.1851 71.7599 12.2627 71.8358 12.2627C71.8535 12.2763 71.8679 12.2938 71.8778 12.314C71.8876 12.3343 71.8928 12.3565 71.8928 12.3791C71.8928 12.4017 71.8876 12.424 71.8778 12.4442C71.8679 12.4644 71.8535 12.482 71.8358 12.4955C71.7599 12.6508 71.684 12.7284 71.5321 12.7284L68.6465 12.8836C67.8028 12.9793 66.9993 13.303 66.3187 13.8213C65.638 14.3397 65.1047 15.034 64.7737 15.8329L64.6218 16.5314C64.5459 16.609 64.6218 16.7642 64.7737 16.7642H74.7974C74.8283 16.7687 74.8599 16.7658 74.8895 16.7557C74.9192 16.7456 74.9461 16.7286 74.9682 16.706C74.9903 16.6834 75.007 16.6559 75.0169 16.6255C75.0268 16.5952 75.0296 16.563 75.0252 16.5314C75.206 15.8738 75.308 15.1962 75.3289 14.5135C75.3169 12.5618 74.553 10.6935 73.2027 9.31346C71.8524 7.93338 70.0245 7.15262 68.1149 7.14032Z" fill="#FAAD3F"/>
<path d="M9.0362 19.7134H10.7068V24.3702H13.5924V25.8448H9.0362V19.7134ZM15.339 22.7403C15.339 22.3092 15.4246 21.8826 15.5907 21.4863C15.7567 21.09 15.9998 20.7323 16.305 20.4348C16.6103 20.1373 16.9715 19.9062 17.3667 19.7555C17.7619 19.6049 18.1829 19.5377 18.6042 19.5582C19.0216 19.539 19.4385 19.6076 19.8289 19.7597C20.2193 19.9118 20.575 20.1442 20.874 20.4425C21.173 20.7408 21.4089 21.0986 21.567 21.4939C21.7252 21.8891 21.8023 22.3134 21.7936 22.7403C21.7936 23.1714 21.7079 23.598 21.5419 23.9943C21.3758 24.3906 21.1328 24.7484 20.8275 25.0459C20.5222 25.3434 20.1611 25.5744 19.7659 25.7251C19.3707 25.8758 18.9496 25.9429 18.5283 25.9224C18.1125 25.935 17.6985 25.8619 17.311 25.7075C16.9234 25.553 16.5703 25.3204 16.2727 25.0234C15.975 24.7264 15.7389 24.3712 15.5785 23.979C15.4181 23.5867 15.3366 23.1654 15.339 22.7403ZM20.123 22.7403C20.1379 22.5252 20.1099 22.3092 20.0408 22.1054C19.9717 21.9016 19.8629 21.7142 19.7209 21.5546C19.579 21.395 19.4068 21.2665 19.2149 21.1768C19.0229 21.0871 18.8152 21.0382 18.6042 21.0329C18.1948 21.0533 17.8087 21.2339 17.5259 21.5373C17.2432 21.8407 17.0855 22.2437 17.0855 22.6627C17.0855 23.0817 17.2432 23.4847 17.5259 23.7881C17.8087 24.0915 18.1948 24.2721 18.6042 24.2926C19.5155 24.4478 20.123 23.6717 20.123 22.7403ZM23.8439 23.1284V19.7134H25.5145V23.1284C25.5145 23.9821 25.9701 24.4478 26.6536 24.4478C26.8132 24.4613 26.9737 24.4378 27.1232 24.3791C27.2727 24.3203 27.4072 24.2277 27.5168 24.1083C27.6263 23.9889 27.708 23.8457 27.7558 23.6894C27.8035 23.5332 27.8161 23.3679 27.7926 23.206V19.7134H29.4632V23.1284C29.4632 25.1463 28.3242 26 26.6536 26C24.907 25.9224 23.8439 25.0687 23.8439 23.1284ZM31.9691 19.7134H34.3232C36.4494 19.7134 37.7403 20.9552 37.7403 22.7403C37.7403 24.5254 36.4494 25.8448 34.3232 25.8448H32.0451V19.7134H31.9691ZM34.3232 24.2926C34.5348 24.3132 34.7483 24.2884 34.95 24.2198C35.1517 24.1512 35.3371 24.0402 35.4944 23.8941C35.6517 23.748 35.7774 23.5698 35.8634 23.3711C35.9494 23.1724 35.9938 22.9576 35.9938 22.7403C35.9938 22.5231 35.9494 22.3082 35.8634 22.1095C35.7774 21.9108 35.6517 21.7327 35.4944 21.5865C35.3371 21.4404 35.1517 21.3294 34.95 21.2608C34.7483 21.1922 34.5348 21.1674 34.3232 21.1881H33.6397V24.2926H34.3232ZM40.0944 19.7134H44.8784V21.1881H41.765V22.197H44.5747V23.594H41.765V25.8448H40.0944V19.7134ZM47.2324 19.7134H48.9031V24.3702H51.7887V25.8448H47.2324V19.7134ZM56.1171 19.6358H57.7877L60.3695 25.8448H58.547L58.0914 24.7582H55.7374L55.2818 25.8448H53.5352L56.1171 19.6358ZM57.6358 23.4388L56.9524 21.7314L56.2689 23.4388H57.6358ZM62.4958 19.7134H65.3054C65.6639 19.6837 66.0245 19.7305 66.3644 19.8507C66.7043 19.971 67.016 20.1621 67.2798 20.412C67.4974 20.6517 67.6552 20.9415 67.7401 21.2568C67.8249 21.5721 67.8342 21.9036 67.7671 22.2234C67.7001 22.5431 67.5587 22.8417 67.3549 23.0938C67.1511 23.3459 66.8909 23.5441 66.5963 23.6717L68.0391 25.8448H66.1407L64.9257 23.9821H64.1664V25.8448H62.4958V19.7134ZM65.2295 22.6627C65.761 22.6627 66.1407 22.3523 66.1407 21.9642C66.1407 21.4985 65.761 21.2657 65.2295 21.2657H64.1664V22.7403H65.2295V22.6627ZM70.1654 19.7134H75.0253V21.1105H71.836V22.0418H74.7216V23.4388H71.836V24.3702H75.1013V25.8448H70.1654V19.7134ZM5.39123 23.5164C5.2767 23.7907 5.0864 24.0249 4.84362 24.1903C4.60084 24.3558 4.31614 24.4452 4.02437 24.4478C3.61489 24.4274 3.2288 24.2467 2.94606 23.9433C2.66333 23.6399 2.50563 23.2369 2.50563 22.8179C2.50563 22.3989 2.66333 21.996 2.94606 21.6926C3.2288 21.3891 3.61489 21.2085 4.02437 21.1881C4.33492 21.1942 4.63695 21.2929 4.89329 21.4722C5.14964 21.6515 5.34911 21.9034 5.46717 22.197H7.21372C7.06431 21.4536 6.66191 20.7883 6.078 20.3194C5.49409 19.8505 4.76647 19.6083 4.02437 19.6358C3.60461 19.6219 3.18633 19.6935 2.79394 19.8466C2.40156 19.9996 2.04292 20.231 1.73897 20.5272C1.43501 20.8234 1.19181 21.1785 1.02358 21.5718C0.855338 21.9651 0.765425 22.3887 0.759082 22.8179C0.756745 23.2431 0.838215 23.6643 0.998631 24.0566C1.15905 24.4488 1.39512 24.804 1.69278 25.101C1.99043 25.398 2.34356 25.6306 2.7311 25.7851C3.11864 25.9396 3.53265 26.0126 3.94843 26C4.67398 26.005 5.38066 25.7639 5.95779 25.3145C6.53493 24.8651 6.94992 24.2327 7.13778 23.5164H5.39123Z" fill="white"/>
</g>
<defs>
<clipPath id="clip0_7_164">
<rect width="77" height="26" fill="white"/>
</clipPath>
</defs>
</svg>
