<svg width="94" height="26" viewBox="0 0 94 26" fill="none" xmlns="http://www.w3.org/2000/svg">
<rect width="45.5455" height="26" rx="2" fill="white"/>
<rect x="0.5" y="0.5" width="44.5455" height="25" rx="1.5" stroke="#434343" stroke-opacity="0.24"/>
<path d="M14.4064 18.7777C13.3484 18.7777 12.4307 18.5344 11.6531 18.0477C10.8808 17.5611 10.2857 16.8708 9.8678 15.9768C9.44991 15.0828 9.24097 14.0196 9.24097 12.7871V12.7712C9.24097 11.5334 9.44991 10.4676 9.8678 9.57361C10.2857 8.67965 10.8808 7.98934 11.6531 7.50269C12.4254 7.01603 13.3431 6.77271 14.4064 6.77271C15.2474 6.77271 16.0065 6.93933 16.6836 7.27258C17.366 7.60055 17.924 8.05546 18.3578 8.63733C18.7968 9.2192 19.064 9.88835 19.1592 10.6448V10.6924H17.3898L17.3818 10.6606C17.276 10.1899 17.083 9.78255 16.8026 9.43872C16.5223 9.09489 16.1784 8.82776 15.7711 8.63733C15.3638 8.4469 14.9089 8.35168 14.4064 8.35168C13.724 8.35168 13.1316 8.53153 12.629 8.89124C12.1318 9.25094 11.7456 9.76139 11.4706 10.4226C11.2008 11.0785 11.0659 11.8614 11.0659 12.7712V12.7871C11.0659 13.6864 11.2008 14.4666 11.4706 15.1278C11.7456 15.789 12.1318 16.2995 12.629 16.6592C13.1316 17.0189 13.7266 17.1987 14.4143 17.1987C14.9168 17.1987 15.3717 17.1141 15.7791 16.9448C16.1917 16.7756 16.5355 16.5349 16.8105 16.2228C17.0856 15.9054 17.2734 15.5325 17.3739 15.104L17.3898 15.0723H19.1671L19.1592 15.1119C19.0481 15.8472 18.7783 16.4899 18.3499 17.04C17.9214 17.5902 17.3713 18.0186 16.6995 18.3254C16.0277 18.627 15.2633 18.7777 14.4064 18.7777ZM24.5547 18.5555C23.6131 18.5555 22.9307 18.3757 22.5076 18.016C22.0897 17.651 21.8807 17.0559 21.8807 16.2307V11.2399H20.5319V9.88306H21.8807V7.70898H23.6422V9.88306H25.491V11.2399H23.6422V15.8102C23.6422 16.2757 23.7348 16.6116 23.9199 16.8179C24.1051 17.0189 24.4119 17.1194 24.8403 17.1194C24.9673 17.1194 25.0757 17.1167 25.1656 17.1115C25.2609 17.1062 25.3693 17.0982 25.491 17.0876V18.4683C25.3534 18.4894 25.2053 18.5079 25.0466 18.5238C24.8879 18.545 24.724 18.5555 24.5547 18.5555ZM27.5063 18.5V9.88306H29.2281V11.1843H29.363C29.5164 10.7241 29.7862 10.3671 30.1724 10.1132C30.5638 9.85925 31.0452 9.7323 31.6165 9.7323C31.7593 9.7323 31.8995 9.74023 32.037 9.7561C32.1745 9.77197 32.2856 9.79049 32.3702 9.81165V11.3986C32.2168 11.3668 32.0634 11.343 31.91 11.3271C31.7619 11.3113 31.6059 11.3033 31.4419 11.3033C31.0028 11.3033 30.6167 11.388 30.2834 11.5573C29.9555 11.7265 29.6963 11.9646 29.5059 12.2714C29.3207 12.5729 29.2281 12.9326 29.2281 13.3505V18.5H27.5063ZM34.1079 18.5V6.50293H35.8297V18.5H34.1079Z" fill="#434343"/>
<path d="M52.3589 14.2051V12.8447H59.7622V14.2051H52.3589ZM55.3804 17.2402V9.80957H56.7407V17.2402H55.3804Z" fill="#434343"/>
<rect x="67.5454" width="26" height="26" rx="2" fill="white"/>
<rect x="68.0454" y="0.5" width="25" height="25" rx="1.5" stroke="#434343" stroke-opacity="0.24"/>
<path d="M79.1713 18.5L75.1008 7.05042H77.0369L80.0917 16.3497H80.2266L83.2814 7.05042H85.2253L81.147 18.5H79.1713Z" fill="#434343"/>
</svg>
