<svg width="121" height="140" viewBox="0 0 121 140" fill="none" xmlns="http://www.w3.org/2000/svg">
<path fill-rule="evenodd" clip-rule="evenodd" d="M119.487 35.1258C119.783 35.6283 120.008 36.1689 120.163 36.7476C120.343 58.8217 120.343 80.8955 120.163 102.97C119.701 104.297 118.935 105.424 117.865 106.348C112.96 109.23 108.095 112.158 103.269 115.133C89.3635 123.316 75.4885 131.56 61.644 139.865C60.5628 140.045 59.4816 140.045 58.4005 139.865C39.7056 128.851 21.0553 117.769 2.44958 106.619C1.37083 105.811 0.605091 104.775 0.152078 103.51C0.0169314 81.5264 -0.0282077 59.5426 0.0169314 37.5585C0.298848 35.6975 1.29002 34.3011 2.99017 33.3689C21.1447 22.535 39.2545 11.6332 57.3193 0.663302C59.2186 -0.221101 61.1107 -0.221101 62.9955 0.663302C80.8803 11.4529 98.8097 22.1747 116.784 32.8283C117.866 33.4094 118.767 34.1754 119.487 35.1258Z" fill="white"/>
<path fill-rule="evenodd" clip-rule="evenodd" d="M58.9411 11.3399C59.9704 11.2488 60.9613 11.384 61.9143 11.7453C77.8165 21.3408 93.719 30.9362 109.621 40.5317C109.802 40.892 109.982 41.2525 110.162 41.6129C110.429 60.8191 110.339 80.01 109.892 99.1855C93.8315 108.995 77.749 118.771 61.644 128.512C60.8586 128.869 60.0477 128.959 59.2114 128.783C43.1286 119.074 27.001 109.434 10.8287 99.8612C10.2917 99.5047 9.97622 99.0093 9.8827 98.3746C9.70241 79.6343 9.70241 60.8937 9.8827 42.1534C10.01 41.6815 10.1903 41.2309 10.4233 40.802C26.6807 31.0762 42.8532 21.2556 58.9411 11.3399Z" fill="#071848"/>
<path fill-rule="evenodd" clip-rule="evenodd" d="M57.049 27.8279C67.6819 27.2178 74.2141 32.0831 76.6453 42.4237C76.8256 43.7752 76.8256 45.1267 76.6453 46.4782C76.1494 48.5908 75.6088 50.6629 75.0236 52.6949C79.0329 58.5514 83.0424 64.4076 87.0517 70.264C95.2986 70.36 100.93 74.2344 103.945 81.8867C105.923 89.8317 103.625 96.1836 97.0526 100.942C90.8361 104.168 84.7544 103.942 78.8077 100.267C73.6078 103.971 68.4273 107.71 63.2658 111.484C62.2438 112.355 61.0726 112.941 59.752 113.241C58.3229 112.616 56.9714 111.85 55.6976 110.943C51.0125 107.52 46.3273 104.096 41.6423 100.672C41.372 100.492 41.1017 100.492 40.8314 100.672C32.4858 105.04 25.1427 103.734 18.8024 96.7529C15.7875 92.3998 14.8867 87.6245 16.0995 82.4273C18.4616 75.1996 23.4169 71.1452 30.9656 70.264C35.4628 63.5597 40.0127 56.8926 44.6155 50.2623C41.929 41.8791 44.1814 35.1666 51.3728 30.1254C53.233 29.1923 55.1251 28.4266 57.049 27.8279Z" fill="white"/>
<path fill-rule="evenodd" clip-rule="evenodd" d="M58.4005 37.2882C62.8495 36.9197 65.8679 38.8118 67.4553 42.9643C67.9594 47.4166 66.1125 50.435 61.9143 52.0192C56.9936 52.7365 53.8852 50.7093 52.5892 45.9376C52.307 41.5431 54.2439 38.6599 58.4005 37.2882Z" fill="#071848"/>
<path fill-rule="evenodd" clip-rule="evenodd" d="M50.562 58.9117C52.1359 59.652 53.7577 60.3278 55.4273 60.9389C58.0164 61.7095 60.6293 61.7995 63.2658 61.2092C64.7565 60.8019 66.1979 60.3513 67.5905 59.8577C70.924 64.633 74.2578 69.408 77.5914 74.1833C72.0639 79.3094 70.3972 85.4811 72.5909 92.6985C68.4392 95.8141 64.2497 98.8774 60.0223 101.888C55.8849 98.9677 51.7856 95.9944 47.7239 92.9688C50.0011 84.7545 47.7939 78.0423 41.1017 72.8318C44.4276 68.2933 47.5812 63.6532 50.562 58.9117Z" fill="#071848"/>
<path fill-rule="evenodd" clip-rule="evenodd" d="M30.2899 79.454C36.5939 79.1362 39.6123 82.1094 39.3447 88.3737C38.1338 92.4719 35.3857 94.4091 31.1008 94.1851C25.2554 92.4501 23.4085 88.7111 25.5597 82.9679C26.8061 81.3112 28.3827 80.14 30.2899 79.454Z" fill="#071848"/>
<path fill-rule="evenodd" clip-rule="evenodd" d="M86.2408 79.4541C91.0093 78.8851 94.1177 80.8674 95.566 85.4005C95.7538 91.2494 92.9157 94.1775 87.0517 94.1851C81.4036 92.2903 79.6467 88.5513 81.781 82.9679C82.907 81.3056 84.3936 80.1344 86.2408 79.4541Z" fill="#071848"/>
</svg>
