<svg width="94" height="26" viewBox="0 0 94 26" fill="none" xmlns="http://www.w3.org/2000/svg">
<rect width="45.5455" height="26" rx="2" fill="#222222"/>
<rect x="0.5" y="0.5" width="44.5455" height="25" rx="1.5" stroke="white" stroke-opacity="0.14"/>
<path d="M14.4061 18.7777C13.3482 18.7777 12.4304 18.5344 11.6528 18.0477C10.8805 17.5611 10.2854 16.8708 9.86755 15.9768C9.44967 15.0828 9.24072 14.0196 9.24072 12.7871V12.7712C9.24072 11.5334 9.44967 10.4676 9.86755 9.57361C10.2854 8.67965 10.8805 7.98934 11.6528 7.50269C12.4251 7.01603 13.3429 6.77271 14.4061 6.77271C15.2472 6.77271 16.0063 6.93933 16.6833 7.27258C17.3657 7.60055 17.9238 8.05546 18.3575 8.63733C18.7966 9.2192 19.0637 9.88835 19.1589 10.6448V10.6924H17.3895L17.3816 10.6606C17.2758 10.1899 17.0827 9.78255 16.8024 9.43872C16.522 9.09489 16.1782 8.82776 15.7709 8.63733C15.3636 8.4469 14.9087 8.35168 14.4061 8.35168C13.7238 8.35168 13.1313 8.53153 12.6288 8.89124C12.1316 9.25094 11.7454 9.76139 11.4703 10.4226C11.2006 11.0785 11.0657 11.8614 11.0657 12.7712V12.7871C11.0657 13.6864 11.2006 14.4666 11.4703 15.1278C11.7454 15.789 12.1316 16.2995 12.6288 16.6592C13.1313 17.0189 13.7264 17.1987 14.4141 17.1987C14.9166 17.1987 15.3715 17.1141 15.7788 16.9448C16.1914 16.7756 16.5352 16.5349 16.8103 16.2228C17.0854 15.9054 17.2732 15.5325 17.3737 15.104L17.3895 15.0723H19.1669L19.1589 15.1119C19.0479 15.8472 18.7781 16.4899 18.3496 17.04C17.9211 17.5902 17.371 18.0186 16.6992 18.3254C16.0274 18.627 15.2631 18.7777 14.4061 18.7777ZM24.5544 18.5555C23.6129 18.5555 22.9305 18.3757 22.5073 18.016C22.0894 17.651 21.8805 17.0559 21.8805 16.2307V11.2399H20.5316V9.88306H21.8805V7.70898H23.642V9.88306H25.4907V11.2399H23.642V15.8102C23.642 16.2757 23.7345 16.6116 23.9197 16.8179C24.1048 17.0189 24.4116 17.1194 24.8401 17.1194C24.967 17.1194 25.0755 17.1167 25.1654 17.1115C25.2606 17.1062 25.3691 17.0982 25.4907 17.0876V18.4683C25.3532 18.4894 25.2051 18.5079 25.0464 18.5238C24.8877 18.545 24.7237 18.5555 24.5544 18.5555ZM27.5061 18.5V9.88306H29.2279V11.1843H29.3628C29.5162 10.7241 29.786 10.3671 30.1721 10.1132C30.5636 9.85925 31.0449 9.7323 31.6162 9.7323C31.759 9.7323 31.8992 9.74023 32.0367 9.7561C32.1743 9.77197 32.2854 9.79049 32.37 9.81165V11.3986C32.2166 11.3668 32.0632 11.343 31.9098 11.3271C31.7617 11.3113 31.6056 11.3033 31.4417 11.3033C31.0026 11.3033 30.6165 11.388 30.2832 11.5573C29.9552 11.7265 29.696 11.9646 29.5056 12.2714C29.3205 12.5729 29.2279 12.9326 29.2279 13.3505V18.5H27.5061ZM34.1077 18.5V6.50293H35.8295V18.5H34.1077Z" fill="#D9D9D9"/>
<path d="M52.3589 14.2051V12.8447H59.7622V14.2051H52.3589ZM55.3804 17.2402V9.80957H56.7407V17.2402H55.3804Z" fill="#D9D9D9"/>
<rect x="67.5454" width="26" height="26" rx="2" fill="#222222"/>
<rect x="68.0454" y="0.5" width="25" height="25" rx="1.5" stroke="white" stroke-opacity="0.14"/>
<path d="M79.1713 18.5L75.1008 7.05042H77.0369L80.0917 16.3497H80.2266L83.2814 7.05042H85.2253L81.147 18.5H79.1713Z" fill="#D9D9D9"/>
</svg>
