<svg width="59" height="26" viewBox="0 0 59 26" fill="none" xmlns="http://www.w3.org/2000/svg">
<rect width="58.5455" height="26" rx="2" fill="white"/>
<rect x="0.5" y="0.5" width="57.5455" height="25" rx="1.5" stroke="#434343" stroke-opacity="0.24"/>
<path d="M9.70911 18.5V7.05042H16.9772V8.58972H11.4865V11.9302H16.6836V13.406H11.4865V16.9607H16.9772V18.5H9.70911ZM19.3496 18.5V9.88306H21.0714V11.1843H21.2063C21.4179 10.7241 21.73 10.3644 22.1426 10.1052C22.5552 9.84603 23.0762 9.71643 23.7057 9.71643C24.6737 9.71643 25.4143 9.99414 25.9274 10.5496C26.4405 11.105 26.697 11.8958 26.697 12.922V18.5H24.9673V13.3267C24.9673 12.6073 24.8165 12.073 24.515 11.7239C24.2188 11.3695 23.7533 11.1923 23.1185 11.1923C22.7006 11.1923 22.3383 11.2848 22.0315 11.47C21.7247 11.6498 21.4867 11.909 21.3174 12.2476C21.1534 12.5808 21.0714 12.9802 21.0714 13.4457V18.5H19.3496ZM32.3464 18.5555C31.4049 18.5555 30.7225 18.3757 30.2993 18.016C29.8814 17.651 29.6725 17.0559 29.6725 16.2307V11.2399H28.3236V9.88306H29.6725V7.70898H31.434V9.88306H33.2827V11.2399H31.434V15.8102C31.434 16.2757 31.5265 16.6116 31.7117 16.8179C31.8968 17.0189 32.2036 17.1194 32.6321 17.1194C32.759 17.1194 32.8675 17.1167 32.9574 17.1115C33.0526 17.1062 33.1611 17.0982 33.2827 17.0876V18.4683C33.1452 18.4894 32.9971 18.5079 32.8384 18.5238C32.6797 18.545 32.5157 18.5555 32.3464 18.5555ZM38.821 18.6666C37.98 18.6666 37.2579 18.4868 36.6549 18.1271C36.0519 17.7621 35.5864 17.2463 35.2584 16.5798C34.9358 15.9133 34.7744 15.1252 34.7744 14.2153V14.2074C34.7744 13.3081 34.9358 12.5226 35.2584 11.8508C35.5864 11.179 36.0466 10.6554 36.639 10.2798C37.2368 9.90422 37.935 9.71643 38.7338 9.71643C39.5378 9.71643 40.2281 9.89628 40.8047 10.256C41.3866 10.6157 41.8335 11.1208 42.1456 11.7715C42.4577 12.4168 42.6138 13.1733 42.6138 14.0408V14.6438H35.6472V13.4139H41.7568L40.9316 14.5565V13.8662C40.9316 13.2526 40.8364 12.7448 40.646 12.3428C40.4609 11.9355 40.2043 11.6313 39.8763 11.4303C39.5484 11.2293 39.1702 11.1288 38.7417 11.1288C38.3132 11.1288 37.9297 11.2346 37.5912 11.4462C37.2579 11.6525 36.9934 11.9593 36.7977 12.3666C36.6073 12.7739 36.5121 13.2738 36.5121 13.8662V14.5565C36.5121 15.1225 36.6073 15.6065 36.7977 16.0085C36.9882 16.4106 37.2579 16.7174 37.6071 16.929C37.9615 17.1405 38.3794 17.2463 38.8607 17.2463C39.231 17.2463 39.5484 17.1961 39.8129 17.0956C40.0826 16.9898 40.3022 16.8602 40.4714 16.7068C40.646 16.5534 40.765 16.4026 40.8285 16.2545L40.8602 16.191H42.5265L42.5106 16.2625C42.4366 16.5481 42.307 16.8337 42.1218 17.1194C41.9367 17.3997 41.6907 17.6563 41.3839 17.889C41.0824 18.1218 40.7174 18.3096 40.2889 18.4524C39.8658 18.5952 39.3765 18.6666 38.821 18.6666ZM44.6609 18.5V9.88306H46.3827V11.1843H46.5176C46.671 10.7241 46.9408 10.3671 47.3269 10.1132C47.7183 9.85925 48.1997 9.7323 48.771 9.7323C48.9138 9.7323 49.054 9.74023 49.1915 9.7561C49.3291 9.77197 49.4401 9.79049 49.5248 9.81165V11.3986C49.3714 11.3668 49.218 11.343 49.0646 11.3271C48.9165 11.3113 48.7604 11.3033 48.5964 11.3033C48.1574 11.3033 47.7712 11.388 47.438 11.5573C47.11 11.7265 46.8508 11.9646 46.6604 12.2714C46.4753 12.5729 46.3827 12.9326 46.3827 13.3505V18.5H44.6609Z" fill="#434343"/>
</svg>
