<svg width="59" height="26" viewBox="0 0 59 26" fill="none" xmlns="http://www.w3.org/2000/svg">
<rect width="58.5455" height="26" rx="2" fill="#222222"/>
<rect x="0.5" y="0.5" width="57.5455" height="25" rx="1.5" stroke="white" stroke-opacity="0.14"/>
<path d="M9.70886 18.5V7.05042H16.9769V8.58972H11.4862V11.9302H16.6833V13.406H11.4862V16.9607H16.9769V18.5H9.70886ZM19.3494 18.5V9.88306H21.0712V11.1843H21.2061C21.4176 10.7241 21.7297 10.3644 22.1423 10.1052C22.5549 9.84603 23.076 9.71643 23.7054 9.71643C24.6735 9.71643 25.414 9.99414 25.9271 10.5496C26.4402 11.105 26.6968 11.8958 26.6968 12.922V18.5H24.967V13.3267C24.967 12.6073 24.8163 12.073 24.5148 11.7239C24.2185 11.3695 23.7531 11.1923 23.1183 11.1923C22.7004 11.1923 22.3381 11.2848 22.0312 11.47C21.7244 11.6498 21.4864 11.909 21.3171 12.2476C21.1532 12.5808 21.0712 12.9802 21.0712 13.4457V18.5H19.3494ZM32.3462 18.5555C31.4046 18.5555 30.7222 18.3757 30.2991 18.016C29.8812 17.651 29.6722 17.0559 29.6722 16.2307V11.2399H28.3234V9.88306H29.6722V7.70898H31.4337V9.88306H33.2825V11.2399H31.4337V15.8102C31.4337 16.2757 31.5263 16.6116 31.7114 16.8179C31.8966 17.0189 32.2034 17.1194 32.6318 17.1194C32.7588 17.1194 32.8672 17.1167 32.9572 17.1115C33.0524 17.1062 33.1608 17.0982 33.2825 17.0876V18.4683C33.1449 18.4894 32.9968 18.5079 32.8381 18.5238C32.6794 18.545 32.5155 18.5555 32.3462 18.5555ZM38.8208 18.6666C37.9797 18.6666 37.2577 18.4868 36.6547 18.1271C36.0516 17.7621 35.5861 17.2463 35.2582 16.5798C34.9355 15.9133 34.7742 15.1252 34.7742 14.2153V14.2074C34.7742 13.3081 34.9355 12.5226 35.2582 11.8508C35.5861 11.179 36.0463 10.6554 36.6388 10.2798C37.2365 9.90422 37.9348 9.71643 38.7335 9.71643C39.5376 9.71643 40.2279 9.89628 40.8044 10.256C41.3863 10.6157 41.8333 11.1208 42.1454 11.7715C42.4575 12.4168 42.6135 13.1733 42.6135 14.0408V14.6438H35.647V13.4139H41.7566L40.9314 14.5565V13.8662C40.9314 13.2526 40.8362 12.7448 40.6458 12.3428C40.4606 11.9355 40.2041 11.6313 39.8761 11.4303C39.5481 11.2293 39.1699 11.1288 38.7415 11.1288C38.313 11.1288 37.9295 11.2346 37.5909 11.4462C37.2577 11.6525 36.9932 11.9593 36.7975 12.3666C36.6071 12.7739 36.5118 13.2738 36.5118 13.8662V14.5565C36.5118 15.1225 36.6071 15.6065 36.7975 16.0085C36.9879 16.4106 37.2577 16.7174 37.6068 16.929C37.9612 17.1405 38.3791 17.2463 38.8605 17.2463C39.2308 17.2463 39.5481 17.1961 39.8126 17.0956C40.0824 16.9898 40.3019 16.8602 40.4712 16.7068C40.6458 16.5534 40.7648 16.4026 40.8282 16.2545L40.86 16.191H42.5262L42.5104 16.2625C42.4363 16.5481 42.3067 16.8337 42.1216 17.1194C41.9364 17.3997 41.6905 17.6563 41.3837 17.889C41.0822 18.1218 40.7172 18.3096 40.2887 18.4524C39.8655 18.5952 39.3762 18.6666 38.8208 18.6666ZM44.6606 18.5V9.88306H46.3824V11.1843H46.5173C46.6707 10.7241 46.9405 10.3671 47.3267 10.1132C47.7181 9.85925 48.1995 9.7323 48.7708 9.7323C48.9136 9.7323 49.0538 9.74023 49.1913 9.7561C49.3288 9.77197 49.4399 9.79049 49.5245 9.81165V11.3986C49.3711 11.3668 49.2177 11.343 49.0643 11.3271C48.9162 11.3113 48.7602 11.3033 48.5962 11.3033C48.1571 11.3033 47.771 11.388 47.4377 11.5573C47.1098 11.7265 46.8506 11.9646 46.6602 12.2714C46.475 12.5729 46.3824 12.9326 46.3824 13.3505V18.5H44.6606Z" fill="#D9D9D9"/>
</svg>
