<svg width="74" height="26" viewBox="0 0 74 26" fill="none" xmlns="http://www.w3.org/2000/svg">
<rect width="26" height="26" rx="2" fill="white"/>
<rect x="0.5" y="0.5" width="25" height="25" rx="1.5" stroke="#434343" stroke-opacity="0.24"/>
<g clip-path="url(#clip0_17_1021)">
<path d="M7.04199 8.72119L11.8746 8.06306L11.8768 12.7245L7.04646 12.752L7.04199 8.72119ZM11.8723 13.2616L11.8761 17.9271L7.04578 17.263L7.04551 13.2303L11.8723 13.2616ZM12.4581 7.97694L18.8658 7.04175V12.6652L12.4581 12.7161V7.97694ZM18.8673 13.3054L18.8658 18.9036L12.4581 17.9993L12.4492 13.295L18.8673 13.3054Z" fill="#434343"/>
</g>
<path d="M32.8135 14.2051V12.8447H40.2168V14.2051H32.8135ZM35.835 17.2402V9.80957H37.1953V17.2402H35.835Z" fill="#434343"/>
<rect x="48" width="26" height="26" rx="2" fill="white"/>
<rect x="48.5" y="0.5" width="25" height="25" rx="1.5" stroke="#434343" stroke-opacity="0.24"/>
<path d="M56.9362 18.5V7.05042H61.4509C62.2338 7.05042 62.9109 7.19588 63.4822 7.48682C64.0535 7.77246 64.4925 8.17712 64.7993 8.70081C65.1114 9.2192 65.2675 9.8328 65.2675 10.5416V10.5575C65.2675 11.3298 65.0717 12.0095 64.6803 12.5967C64.2889 13.1785 63.744 13.5885 63.0458 13.8265L65.6086 18.5H63.5536L61.2208 14.0963C61.205 14.0963 61.1891 14.0963 61.1732 14.0963C61.1573 14.0963 61.1415 14.0963 61.1256 14.0963H58.7135V18.5H56.9362ZM58.7135 12.6522H61.2764C61.9587 12.6522 62.4877 12.475 62.8633 12.1206C63.2389 11.7609 63.4266 11.2557 63.4266 10.6051V10.5892C63.4266 9.95447 63.2309 9.45459 62.8395 9.0896C62.4533 8.72461 61.9138 8.54211 61.2208 8.54211H58.7135V12.6522Z" fill="#434343"/>
<defs>
<clipPath id="clip0_17_1021">
<rect width="11.9167" height="11.9167" fill="white" transform="translate(7.04199 7.04175)"/>
</clipPath>
</defs>
</svg>
