<svg width="155" height="36" viewBox="0 0 155 36" fill="none" xmlns="http://www.w3.org/2000/svg">
<path fill-rule="evenodd" clip-rule="evenodd" d="M30.7252 9.03235C30.8013 9.16156 30.8591 9.30057 30.899 9.44938C30.9453 15.1256 30.9453 20.8017 30.899 26.4779C30.7803 26.8193 30.5833 27.1089 30.3082 27.3467C29.0468 28.0878 27.7958 28.8407 26.555 29.6056C22.9792 31.7098 19.4113 33.8296 15.8513 35.9652C15.5733 36.0116 15.2953 36.0116 15.0173 35.9652C10.21 33.1331 5.41421 30.2834 0.629892 27.4162C0.3525 27.2085 0.155595 26.9421 0.0391059 26.6169C0.00435378 20.9639 -0.00725341 15.3109 0.00435379 9.65789C0.0768467 9.17935 0.331719 8.82029 0.7689 8.58057C5.43722 5.79471 10.094 2.99139 14.7392 0.170563C15.2277 -0.0568544 15.7142 -0.0568544 16.1988 0.170563C20.7978 2.94503 25.4082 5.70206 30.0302 8.44157C30.3084 8.591 30.5401 8.78797 30.7252 9.03235Z" fill="white"/>
<path fill-rule="evenodd" clip-rule="evenodd" d="M15.1563 2.91598C15.4209 2.89255 15.6758 2.9273 15.9208 3.02023C20.01 5.48763 24.0992 7.95503 28.1883 10.4224C28.2347 10.5151 28.281 10.6078 28.3273 10.7004C28.3961 15.6392 28.373 20.574 28.2578 25.5048C24.1281 28.0273 19.9926 30.5411 15.8513 33.0461C15.6493 33.1377 15.4408 33.1609 15.2258 33.1156C11.0902 30.6191 6.94311 28.1401 2.78453 25.6786C2.64643 25.5869 2.56531 25.4595 2.54127 25.2963C2.49491 20.4774 2.49491 15.6584 2.54127 10.8395C2.574 10.7181 2.62036 10.6022 2.68027 10.4919C6.86074 7.99103 11.0194 5.46574 15.1563 2.91598Z" fill="#0B0F1A"/>
<path fill-rule="evenodd" clip-rule="evenodd" d="M14.6697 7.15574C17.4039 6.99887 19.0836 8.24994 19.7088 10.909C19.7552 11.2565 19.7552 11.604 19.7088 11.9515C19.5813 12.4948 19.4423 13.0276 19.2918 13.5501C20.3227 15.0561 21.3538 16.562 22.3847 18.0679C24.5054 18.0926 25.9534 19.0888 26.7287 21.0566C27.2373 23.0996 26.6465 24.7329 24.9564 25.9566C23.3578 26.786 21.794 26.7281 20.2648 25.7829C18.9277 26.7354 17.5956 27.6969 16.2683 28.6673C16.0056 28.8914 15.7044 29.0419 15.3648 29.1191C14.9973 28.9584 14.6498 28.7615 14.3222 28.5283C13.1175 27.6479 11.9127 26.7675 10.708 25.8871C10.6385 25.8408 10.569 25.8408 10.4995 25.8871C8.35349 27.0103 6.46526 26.6744 4.8349 24.8793C4.05965 23.7599 3.828 22.532 4.13986 21.1956C4.74726 19.337 6.02148 18.2945 7.96259 18.0679C9.119 16.3439 10.289 14.6295 11.4726 12.9246C10.7818 10.7689 11.3609 9.04284 13.2102 7.74652C13.6885 7.50659 14.175 7.30969 14.6697 7.15574Z" fill="white"/>
<path fill-rule="evenodd" clip-rule="evenodd" d="M15.0173 9.58838C16.1613 9.49365 16.9375 9.98018 17.3457 11.048C17.4753 12.1928 17.0004 12.969 15.9208 13.3764C14.6555 13.5608 13.8562 13.0395 13.5229 11.8125C13.4504 10.6825 13.9484 9.94112 15.0173 9.58838Z" fill="#0B0F1A"/>
<path fill-rule="evenodd" clip-rule="evenodd" d="M13.0016 15.1487C13.4064 15.3391 13.8234 15.5129 14.2527 15.67C14.9185 15.8682 15.5904 15.8913 16.2683 15.7395C16.6517 15.6348 17.0223 15.5189 17.3804 15.392C18.2376 16.6199 19.0949 17.8478 19.9521 19.0757C18.5307 20.3939 18.1021 21.9808 18.6662 23.8367C17.5987 24.6379 16.5213 25.4256 15.4343 26.1999C14.3704 25.4488 13.3163 24.6843 12.2719 23.9063C12.8574 21.794 12.2899 20.068 10.569 18.7282C11.4243 17.5611 12.2352 16.368 13.0016 15.1487Z" fill="#0B0F1A"/>
<path fill-rule="evenodd" clip-rule="evenodd" d="M7.78882 20.431C9.40987 20.3493 10.186 21.1138 10.1172 22.7247C9.80584 23.7785 9.09919 24.2766 7.99734 24.219C6.49424 23.7729 6.01932 22.8114 6.5725 21.3346C6.89298 20.9086 7.2984 20.6074 7.78882 20.431Z" fill="#0B0F1A"/>
<path fill-rule="evenodd" clip-rule="evenodd" d="M22.1762 20.431C23.4024 20.2847 24.2017 20.7945 24.5741 21.9601C24.6224 23.4641 23.8926 24.2171 22.3847 24.219C20.9324 23.7318 20.4806 22.7703 21.0294 21.3346C21.3189 20.9071 21.7012 20.606 22.1762 20.431Z" fill="#0B0F1A"/>
<path d="M39.0525 27.5V8.30182H45.2507C47.4814 8.30182 49.3189 8.69493 50.7634 9.48114C52.2261 10.2674 53.3048 11.3827 53.9996 12.8271C54.7127 14.2533 55.0692 15.9537 55.0692 17.9283C55.0692 19.8664 54.7127 21.5577 53.9996 23.0021C53.3048 24.4283 52.2261 25.5345 50.7634 26.3207C49.3189 27.1069 47.4814 27.5 45.2507 27.5H39.0525ZM42.3436 24.7026H45.0862C46.75 24.7026 48.0573 24.4374 49.0081 23.9072C49.9771 23.3587 50.6628 22.5816 51.065 21.576C51.4856 20.5521 51.6958 19.3362 51.6958 17.9283C51.6958 16.5022 51.4856 15.2863 51.065 14.2807C50.6628 13.2568 49.9771 12.4706 49.0081 11.9221C48.0573 11.3552 46.75 11.0718 45.0862 11.0718H42.3436V24.7026ZM64.3713 27.8291C63.0001 27.8291 61.7933 27.5366 60.7511 26.9515C59.7089 26.3481 58.8953 25.507 58.3102 24.4283C57.7251 23.3495 57.4326 22.1062 57.4326 20.6984C57.4326 19.2356 57.716 17.9558 58.2828 16.8587C58.8679 15.7617 59.6815 14.9023 60.7237 14.2807C61.7842 13.659 63.0092 13.3482 64.3988 13.3482C65.7518 13.3482 66.9311 13.6499 67.9367 14.2533C68.9423 14.8566 69.7194 15.6703 70.2679 16.6942C70.8165 17.6998 71.0907 18.8334 71.0907 20.095C71.0907 20.2778 71.0907 20.479 71.0907 20.6984C71.0907 20.9178 71.0724 21.1463 71.0359 21.384H59.7912V19.2722H67.7722C67.7356 18.2666 67.3973 17.4804 66.7574 16.9136C66.1175 16.3285 65.3221 16.0359 64.3713 16.0359C63.6948 16.0359 63.0732 16.1914 62.5064 16.5022C61.9396 16.813 61.4916 17.2793 61.1625 17.9009C60.8334 18.5043 60.6688 19.2722 60.6688 20.2047V21C60.6688 21.8594 60.8243 22.5999 61.1351 23.2215C61.4642 23.8432 61.903 24.3186 62.4515 24.6477C63.0183 24.9585 63.6491 25.1139 64.3439 25.1139C65.1119 25.1139 65.7426 24.9494 66.2363 24.6203C66.7483 24.2912 67.1231 23.8523 67.3608 23.3038H70.7067C70.4508 24.1632 70.0302 24.9402 69.4452 25.635C68.8601 26.3115 68.1378 26.8509 67.2785 27.2532C66.4192 27.6371 65.4501 27.8291 64.3713 27.8291ZM73.9649 27.5V8.30182H86.2243V10.9621H77.256V16.5845H84.5787V19.1899H77.256V27.5H73.9649ZM88.797 27.5V13.6773H92.0881V27.5H88.797ZM90.4425 11.4832C89.8391 11.4832 89.3363 11.3004 88.9341 10.9347C88.5501 10.5508 88.3581 10.0845 88.3581 9.53599C88.3581 8.96919 88.5501 8.51209 88.9341 8.16469C89.3363 7.79901 89.8391 7.61617 90.4425 7.61617C91.0459 7.61617 91.5396 7.79901 91.9235 8.16469C92.3258 8.51209 92.5269 8.96919 92.5269 9.53599C92.5269 10.0845 92.3258 10.5508 91.9235 10.9347C91.5396 11.3004 91.0459 11.4832 90.4425 11.4832ZM95.617 27.5V13.6773H98.5242L98.771 15.9811C99.1915 15.1766 99.7949 14.5367 100.581 14.0613C101.367 13.5859 102.3 13.3482 103.379 13.3482C104.494 13.3482 105.445 13.5859 106.231 14.0613C107.017 14.5184 107.62 15.1949 108.041 16.0908C108.48 16.9867 108.699 18.102 108.699 19.4368V27.5H105.408V19.7385C105.408 18.5866 105.152 17.6998 104.64 17.0781C104.128 16.4565 103.369 16.1456 102.364 16.1456C101.706 16.1456 101.111 16.3011 100.581 16.6119C100.069 16.9227 99.6578 17.3798 99.347 17.9832C99.0544 18.5683 98.9081 19.2814 98.9081 20.1224V27.5H95.617ZM118.038 27.8291C116.758 27.8291 115.616 27.5183 114.61 26.8966C113.604 26.275 112.818 25.4156 112.251 24.3186C111.703 23.2215 111.429 21.9782 111.429 20.5887C111.429 19.1991 111.712 17.9649 112.279 16.8862C112.846 15.7891 113.632 14.9298 114.637 14.3081C115.661 13.6682 116.813 13.3482 118.093 13.3482C119.135 13.3482 120.04 13.5493 120.808 13.9516C121.594 14.3355 122.216 14.8841 122.673 15.5971V7.7533H125.964V27.5H123.002L122.673 25.4979C122.381 25.9002 122.024 26.2841 121.604 26.6498C121.183 26.9972 120.68 27.2806 120.095 27.5C119.51 27.7194 118.824 27.8291 118.038 27.8291ZM118.724 24.9768C119.51 24.9768 120.205 24.794 120.808 24.4283C121.412 24.0443 121.878 23.5232 122.207 22.865C122.536 22.2068 122.701 21.448 122.701 20.5887C122.701 19.7293 122.536 18.9705 122.207 18.3123C121.878 17.6541 121.412 17.1421 120.808 16.7764C120.205 16.4108 119.51 16.2279 118.724 16.2279C117.974 16.2279 117.298 16.4108 116.694 16.7764C116.091 17.1421 115.616 17.6541 115.268 18.3123C114.939 18.9705 114.774 19.7293 114.774 20.5887C114.774 21.448 114.939 22.2068 115.268 22.865C115.616 23.5232 116.091 24.0443 116.694 24.4283C117.298 24.794 117.974 24.9768 118.724 24.9768ZM135.823 27.8291C134.452 27.8291 133.245 27.5366 132.203 26.9515C131.161 26.3481 130.347 25.507 129.762 24.4283C129.177 23.3495 128.885 22.1062 128.885 20.6984C128.885 19.2356 129.168 17.9558 129.735 16.8587C130.32 15.7617 131.134 14.9023 132.176 14.2807C133.236 13.659 134.461 13.3482 135.851 13.3482C137.204 13.3482 138.383 13.6499 139.389 14.2533C140.394 14.8566 141.172 15.6703 141.72 16.6942C142.269 17.6998 142.543 18.8334 142.543 20.095C142.543 20.2778 142.543 20.479 142.543 20.6984C142.543 20.9178 142.525 21.1463 142.488 21.384H131.243V19.2722H139.224C139.188 18.2666 138.849 17.4804 138.21 16.9136C137.57 16.3285 136.774 16.0359 135.823 16.0359C135.147 16.0359 134.525 16.1914 133.959 16.5022C133.392 16.813 132.944 17.2793 132.615 17.9009C132.286 18.5043 132.121 19.2722 132.121 20.2047V21C132.121 21.8594 132.276 22.5999 132.587 23.2215C132.916 23.8432 133.355 24.3186 133.904 24.6477C134.47 24.9585 135.101 25.1139 135.796 25.1139C136.564 25.1139 137.195 24.9494 137.688 24.6203C138.2 24.2912 138.575 23.8523 138.813 23.3038H142.159C141.903 24.1632 141.482 24.9402 140.897 25.635C140.312 26.3115 139.59 26.8509 138.731 27.2532C137.871 27.6371 136.902 27.8291 135.823 27.8291ZM145.307 27.5V13.6773H148.242L148.544 16.2554C148.873 15.652 149.284 15.14 149.778 14.7195C150.271 14.2807 150.847 13.9424 151.506 13.7047C152.182 13.467 152.923 13.3482 153.727 13.3482V16.8313H152.575C152.027 16.8313 151.506 16.9044 151.012 17.0507C150.518 17.1787 150.089 17.3981 149.723 17.7089C149.375 18.0015 149.101 18.4129 148.9 18.9431C148.699 19.455 148.598 20.1041 148.598 20.8903V27.5H145.307Z" fill="white"/>
</svg>
