<svg width="114" height="26" viewBox="0 0 114 26" fill="none" xmlns="http://www.w3.org/2000/svg">
<rect x="0.5" y="0.5" width="25" height="25" rx="1.5" fill="#222222"/>
<rect x="0.5" y="0.5" width="25" height="25" rx="1.5" stroke="#414141"/>
<path d="M10.0226 11.5334H8.93555C8.50708 11.5282 8.113 11.4224 7.7533 11.2161C7.39889 11.0098 7.11589 10.7321 6.9043 10.3829C6.69271 10.0338 6.58691 9.63973 6.58691 9.20068C6.58691 8.76693 6.69271 8.37284 6.9043 8.01843C7.11589 7.66402 7.39889 7.38102 7.7533 7.16943C8.113 6.95256 8.50708 6.84412 8.93555 6.84412C9.3693 6.84412 9.76339 6.95256 10.1178 7.16943C10.4775 7.38102 10.7631 7.66402 10.9747 8.01843C11.1863 8.37284 11.2921 8.76693 11.2921 9.20068V10.2798H13.7518V9.20068C13.7518 8.76693 13.8576 8.37284 14.0692 8.01843C14.2861 7.66402 14.5717 7.38102 14.9261 7.16943C15.2806 6.95256 15.672 6.84412 16.1005 6.84412C16.5342 6.84412 16.9283 6.95256 17.2827 7.16943C17.6424 7.38102 17.9281 7.66402 18.1396 8.01843C18.3512 8.37284 18.457 8.76693 18.457 9.20068C18.457 9.63973 18.3512 10.0338 18.1396 10.3829C17.9281 10.7321 17.6424 11.0098 17.2827 11.2161C16.9283 11.4224 16.5342 11.5282 16.1005 11.5334H15.0214V14.0249H16.1005C16.5342 14.0249 16.9283 14.1281 17.2827 14.3344C17.6424 14.5406 17.9281 14.821 18.1396 15.1754C18.3512 15.5245 18.457 15.9186 18.457 16.3577C18.457 16.7861 18.3512 17.1802 18.1396 17.5399C17.9281 17.8943 17.6424 18.18 17.2827 18.3969C16.9283 18.6084 16.5342 18.7142 16.1005 18.7142C15.672 18.7142 15.2806 18.6084 14.9261 18.3969C14.5717 18.18 14.2861 17.8943 14.0692 17.5399C13.8576 17.1802 13.7518 16.7861 13.7518 16.3577V15.2786H11.2921V16.3577C11.2921 16.7861 11.1863 17.1802 10.9747 17.5399C10.7631 17.8943 10.4775 18.18 10.1178 18.3969C9.76339 18.6084 9.3693 18.7142 8.93555 18.7142C8.50708 18.7142 8.113 18.6084 7.7533 18.3969C7.39889 18.18 7.11589 17.8943 6.9043 17.5399C6.69271 17.1802 6.58691 16.7861 6.58691 16.3577C6.58691 15.9186 6.69271 15.5245 6.9043 15.1754C7.11589 14.821 7.39889 14.5406 7.7533 14.3344C8.113 14.1281 8.50708 14.0249 8.93555 14.0249H10.0226V11.5334ZM8.95142 10.2957H10.0226V9.21655C10.0226 8.91504 9.91414 8.65849 9.69727 8.4469C9.48568 8.23002 9.23177 8.12158 8.93555 8.12158C8.64461 8.12158 8.39071 8.22738 8.17383 8.43896C7.96224 8.65055 7.85645 8.90446 7.85645 9.20068C7.85645 9.5022 7.96224 9.76139 8.17383 9.97827C8.39071 10.1899 8.6499 10.2957 8.95142 10.2957ZM16.0846 10.2957C16.3861 10.2957 16.6427 10.1899 16.8542 9.97827C17.0711 9.76139 17.1796 9.5022 17.1796 9.20068C17.1796 8.90446 17.0738 8.65055 16.8622 8.43896C16.6506 8.22738 16.3967 8.12158 16.1005 8.12158C15.8095 8.12158 15.5556 8.23002 15.3387 8.4469C15.1272 8.65849 15.0214 8.91504 15.0214 9.21655V10.2957H16.0846ZM11.2921 14.0328H13.7518V11.5176H11.2921V14.0328ZM8.95142 15.2548C8.6499 15.2548 8.39071 15.3632 8.17383 15.5801C7.96224 15.7917 7.85645 16.0482 7.85645 16.3497C7.85645 16.6407 7.96224 16.8946 8.17383 17.1115C8.39071 17.323 8.64461 17.4288 8.93555 17.4288C9.23177 17.4288 9.48568 17.323 9.69727 17.1115C9.91414 16.8946 10.0226 16.6327 10.0226 16.3259V15.2548H8.95142ZM16.0846 15.2548H15.0214V16.3259C15.0214 16.6327 15.1272 16.8946 15.3387 17.1115C15.5556 17.323 15.8095 17.4288 16.1005 17.4288C16.3967 17.4288 16.6506 17.323 16.8622 17.1115C17.0738 16.8946 17.1796 16.6407 17.1796 16.3497C17.1796 16.0482 17.0711 15.7917 16.8542 15.5801C16.6427 15.3632 16.3861 15.2548 16.0846 15.2548Z" fill="#D9D9D9"/>
<path d="M32.8135 14.2051V12.8447H40.2168V14.2051H32.8135ZM35.835 17.2402V9.80957H37.1953V17.2402H35.835Z" fill="#D9D9D9"/>
<rect x="48.5" y="0.5" width="64.5455" height="25" rx="1.5" fill="#222222"/>
<rect x="48.5" y="0.5" width="64.5455" height="25" rx="1.5" stroke="#414141"/>
<path d="M61.5809 18.7777C60.7187 18.7777 59.9676 18.6428 59.3275 18.373C58.6875 18.098 58.1823 17.7171 57.812 17.2305C57.4417 16.7438 57.2301 16.1805 57.1772 15.5404L57.1693 15.4373H58.9229L58.9308 15.5245C58.9678 15.8684 59.1027 16.1672 59.3354 16.4211C59.5735 16.675 59.8909 16.8734 60.2876 17.0162C60.6896 17.1591 61.1472 17.2305 61.6603 17.2305C62.1416 17.2305 62.5701 17.1538 62.9457 17.0004C63.3212 16.847 63.6148 16.6354 63.8264 16.3656C64.0433 16.0958 64.1517 15.7864 64.1517 15.4373V15.4293C64.1517 14.9903 63.9851 14.6253 63.6519 14.3344C63.3186 14.0434 62.7738 13.816 62.0173 13.652L60.7637 13.3901C59.6052 13.1415 58.7615 12.7474 58.2325 12.2079C57.7036 11.663 57.4391 10.9674 57.4391 10.1211V10.1132C57.4444 9.45194 57.6216 8.87008 57.9707 8.36755C58.3251 7.86503 58.8144 7.47359 59.4386 7.19324C60.0628 6.91288 60.7795 6.77271 61.5889 6.77271C62.3982 6.77271 63.1044 6.91288 63.7074 7.19324C64.3157 7.4683 64.7944 7.84387 65.1436 8.31995C65.498 8.79602 65.6963 9.33293 65.7386 9.93066L65.7466 10.0338H64.0089L63.993 9.93066C63.9454 9.61857 63.8158 9.34086 63.6042 9.09753C63.3979 8.85421 63.1202 8.66378 62.7711 8.52625C62.4273 8.38342 62.0253 8.31466 61.5651 8.31995C61.1207 8.31995 60.724 8.38871 60.3749 8.52625C60.0258 8.65849 59.748 8.85156 59.5417 9.10547C59.3407 9.35938 59.2402 9.66618 59.2402 10.0259V10.0338C59.2402 10.457 59.4016 10.8114 59.7242 11.097C60.0522 11.3774 60.5838 11.5969 61.3191 11.7556L62.5728 12.0333C63.3715 12.2026 64.0195 12.4274 64.5167 12.7078C65.014 12.9881 65.3763 13.3346 65.6038 13.7472C65.8365 14.1545 65.9529 14.6412 65.9529 15.2072V15.2151C65.9529 15.9451 65.773 16.5772 65.4133 17.1115C65.0589 17.6404 64.5538 18.0504 63.8978 18.3413C63.2419 18.6322 62.4696 18.7777 61.5809 18.7777ZM68.0952 21.3723V9.88306H69.817V11.2399H69.9519C70.1159 10.9225 70.3275 10.6527 70.5867 10.4305C70.8512 10.2084 71.1527 10.0365 71.4912 9.91479C71.8298 9.79313 72.2 9.7323 72.6021 9.7323C73.3267 9.7323 73.9562 9.91744 74.4905 10.2877C75.0247 10.6527 75.4373 11.1685 75.7283 11.835C76.0245 12.4962 76.1726 13.2791 76.1726 14.1836V14.1995C76.1726 15.1093 76.0271 15.8975 75.7362 16.564C75.4453 17.2252 75.0327 17.7383 74.4984 18.1033C73.9642 18.463 73.332 18.6428 72.6021 18.6428C72.2053 18.6428 71.835 18.582 71.4912 18.4603C71.1474 18.3334 70.8432 18.1588 70.5787 17.9366C70.3142 17.7145 70.1053 17.4473 69.9519 17.1353H69.817V21.3723H68.0952ZM72.1101 17.167C72.5915 17.167 73.0041 17.048 73.3479 16.8099C73.6917 16.5719 73.9536 16.2307 74.1334 15.7864C74.3186 15.342 74.4111 14.8131 74.4111 14.1995V14.1836C74.4111 13.5647 74.3186 13.0331 74.1334 12.5887C73.9536 12.1444 73.6917 11.8032 73.3479 11.5652C73.0041 11.3271 72.5915 11.2081 72.1101 11.2081C71.634 11.2081 71.2214 11.3298 70.8723 11.5731C70.5232 11.8112 70.2561 12.1523 70.0709 12.5967C69.8858 13.0357 69.7932 13.5647 69.7932 14.1836V14.1995C69.7932 14.8078 69.8858 15.3341 70.0709 15.7784C70.2561 16.2228 70.5232 16.5666 70.8723 16.8099C71.2214 17.048 71.634 17.167 72.1101 17.167ZM80.6001 18.6428C80.0553 18.6428 79.566 18.5397 79.1322 18.3334C78.7037 18.1218 78.3652 17.8229 78.1166 17.4368C77.868 17.0506 77.7437 16.5983 77.7437 16.08V16.0641C77.7437 15.5457 77.868 15.104 78.1166 14.739C78.3705 14.374 78.7355 14.0884 79.2115 13.8821C79.6929 13.6705 80.2748 13.5435 80.9572 13.5012L84.1389 13.3108V14.5248L81.1952 14.7152C80.6027 14.7522 80.1663 14.8792 79.886 15.0961C79.6056 15.3077 79.4655 15.6065 79.4655 15.9927V16.0085C79.4655 16.4 79.6162 16.7094 79.9177 16.9369C80.2192 17.1591 80.6001 17.2701 81.0603 17.2701C81.4888 17.2701 81.8696 17.1855 82.2029 17.0162C82.5414 16.8417 82.8059 16.6089 82.9963 16.318C83.1868 16.0218 83.282 15.6885 83.282 15.3182V12.6046C83.282 12.1285 83.1339 11.7662 82.8376 11.5176C82.5467 11.2637 82.113 11.1367 81.5364 11.1367C81.055 11.1367 80.6609 11.2214 80.3541 11.3906C80.0526 11.5599 79.8516 11.7979 79.7511 12.1047L79.7352 12.1285H78.0769L78.0848 12.073C78.1536 11.5969 78.3414 11.1843 78.6482 10.8352C78.9603 10.4808 79.3676 10.2057 79.8701 10.01C80.3779 9.81429 80.9572 9.71643 81.6078 9.71643C82.3325 9.71643 82.9461 9.8328 83.4486 10.0656C83.9564 10.293 84.3399 10.6236 84.5991 11.0574C84.8636 11.4858 84.9958 12.0016 84.9958 12.6046V18.5H83.282V17.2781H83.155C82.9858 17.569 82.7742 17.8176 82.5203 18.0239C82.2664 18.2249 81.9781 18.3783 81.6554 18.4841C81.3327 18.5899 80.981 18.6428 80.6001 18.6428ZM91.0499 18.6666C90.2142 18.6666 89.4921 18.4868 88.8838 18.1271C88.2808 17.7621 87.8153 17.2437 87.4873 16.5719C87.1593 15.9001 86.9954 15.0987 86.9954 14.1677V14.1519C86.9954 13.2367 87.1567 12.4486 87.4794 11.7874C87.8073 11.1261 88.2728 10.6157 88.8759 10.256C89.4842 9.89628 90.2062 9.71643 91.042 9.71643C91.7667 9.71643 92.3882 9.84338 92.9066 10.0973C93.4303 10.3459 93.8455 10.6897 94.1523 11.1288C94.4644 11.5625 94.6602 12.0571 94.7395 12.6125L94.7474 12.6522H93.0891L93.0812 12.6364C92.986 12.2132 92.7664 11.8614 92.4226 11.5811C92.0788 11.2954 91.6212 11.1526 91.0499 11.1526C90.5739 11.1526 90.1639 11.2743 89.8201 11.5176C89.4762 11.7556 89.2118 12.0994 89.0266 12.5491C88.8468 12.9987 88.7568 13.533 88.7568 14.1519V14.1677C88.7568 14.8025 88.8494 15.3473 89.0345 15.8022C89.2197 16.2572 89.4842 16.6089 89.828 16.8575C90.1718 17.1009 90.5791 17.2225 91.0499 17.2225C91.5895 17.2225 92.0259 17.1035 92.3591 16.8655C92.6977 16.6274 92.9357 16.2757 93.0732 15.8102L93.0891 15.7705L94.7395 15.7626L94.7236 15.834C94.6231 16.3947 94.4195 16.8866 94.1127 17.3098C93.8059 17.733 93.3959 18.0662 92.8828 18.3096C92.375 18.5476 91.764 18.6666 91.0499 18.6666ZM100.31 18.6666C99.4685 18.6666 98.7465 18.4868 98.1434 18.1271C97.5404 17.7621 97.0749 17.2463 96.7469 16.5798C96.4243 15.9133 96.2629 15.1252 96.2629 14.2153V14.2074C96.2629 13.3081 96.4243 12.5226 96.7469 11.8508C97.0749 11.179 97.5351 10.6554 98.1276 10.2798C98.7253 9.90422 99.4235 9.71643 100.222 9.71643C101.026 9.71643 101.717 9.89628 102.293 10.256C102.875 10.6157 103.322 11.1208 103.634 11.7715C103.946 12.4168 104.102 13.1733 104.102 14.0408V14.6438H97.1357V13.4139H103.245L102.42 14.5565V13.8662C102.42 13.2526 102.325 12.7448 102.135 12.3428C101.949 11.9355 101.693 11.6313 101.365 11.4303C101.037 11.2293 100.659 11.1288 100.23 11.1288C99.8018 11.1288 99.4183 11.2346 99.0797 11.4462C98.7465 11.6525 98.482 11.9593 98.2863 12.3666C98.0958 12.7739 98.0006 13.2738 98.0006 13.8662V14.5565C98.0006 15.1225 98.0958 15.6065 98.2863 16.0085C98.4767 16.4106 98.7465 16.7174 99.0956 16.929C99.45 17.1405 99.8679 17.2463 100.349 17.2463C100.72 17.2463 101.037 17.1961 101.301 17.0956C101.571 16.9898 101.791 16.8602 101.96 16.7068C102.135 16.5534 102.254 16.4026 102.317 16.2545L102.349 16.191H104.015L103.999 16.2625C103.925 16.5481 103.795 16.8337 103.61 17.1194C103.425 17.3997 103.179 17.6563 102.872 17.889C102.571 18.1218 102.206 18.3096 101.777 18.4524C101.354 18.5952 100.865 18.6666 100.31 18.6666Z" fill="#D9D9D9"/>
</svg>
