<svg width="74" height="26" viewBox="0 0 74 26" fill="none" xmlns="http://www.w3.org/2000/svg">
<rect x="0.5" y="0.5" width="25" height="25" rx="1.5" fill="#222222"/>
<rect x="0.5" y="0.5" width="25" height="25" rx="1.5" stroke="#414141"/>
<path d="M10.0226 11.5334H8.93555C8.50708 11.5282 8.113 11.4224 7.7533 11.2161C7.39889 11.0098 7.11589 10.7321 6.9043 10.3829C6.69271 10.0338 6.58691 9.63973 6.58691 9.20068C6.58691 8.76693 6.69271 8.37284 6.9043 8.01843C7.11589 7.66402 7.39889 7.38102 7.7533 7.16943C8.113 6.95256 8.50708 6.84412 8.93555 6.84412C9.3693 6.84412 9.76339 6.95256 10.1178 7.16943C10.4775 7.38102 10.7631 7.66402 10.9747 8.01843C11.1863 8.37284 11.2921 8.76693 11.2921 9.20068V10.2798H13.7518V9.20068C13.7518 8.76693 13.8576 8.37284 14.0692 8.01843C14.2861 7.66402 14.5717 7.38102 14.9261 7.16943C15.2806 6.95256 15.672 6.84412 16.1005 6.84412C16.5342 6.84412 16.9283 6.95256 17.2827 7.16943C17.6424 7.38102 17.9281 7.66402 18.1396 8.01843C18.3512 8.37284 18.457 8.76693 18.457 9.20068C18.457 9.63973 18.3512 10.0338 18.1396 10.3829C17.9281 10.7321 17.6424 11.0098 17.2827 11.2161C16.9283 11.4224 16.5342 11.5282 16.1005 11.5334H15.0214V14.0249H16.1005C16.5342 14.0249 16.9283 14.1281 17.2827 14.3344C17.6424 14.5406 17.9281 14.821 18.1396 15.1754C18.3512 15.5245 18.457 15.9186 18.457 16.3577C18.457 16.7861 18.3512 17.1802 18.1396 17.5399C17.9281 17.8943 17.6424 18.18 17.2827 18.3969C16.9283 18.6084 16.5342 18.7142 16.1005 18.7142C15.672 18.7142 15.2806 18.6084 14.9261 18.3969C14.5717 18.18 14.2861 17.8943 14.0692 17.5399C13.8576 17.1802 13.7518 16.7861 13.7518 16.3577V15.2786H11.2921V16.3577C11.2921 16.7861 11.1863 17.1802 10.9747 17.5399C10.7631 17.8943 10.4775 18.18 10.1178 18.3969C9.76339 18.6084 9.3693 18.7142 8.93555 18.7142C8.50708 18.7142 8.113 18.6084 7.7533 18.3969C7.39889 18.18 7.11589 17.8943 6.9043 17.5399C6.69271 17.1802 6.58691 16.7861 6.58691 16.3577C6.58691 15.9186 6.69271 15.5245 6.9043 15.1754C7.11589 14.821 7.39889 14.5406 7.7533 14.3344C8.113 14.1281 8.50708 14.0249 8.93555 14.0249H10.0226V11.5334ZM8.95142 10.2957H10.0226V9.21655C10.0226 8.91504 9.91414 8.65849 9.69727 8.4469C9.48568 8.23002 9.23177 8.12158 8.93555 8.12158C8.64461 8.12158 8.39071 8.22738 8.17383 8.43896C7.96224 8.65055 7.85645 8.90446 7.85645 9.20068C7.85645 9.5022 7.96224 9.76139 8.17383 9.97827C8.39071 10.1899 8.6499 10.2957 8.95142 10.2957ZM16.0846 10.2957C16.3861 10.2957 16.6427 10.1899 16.8542 9.97827C17.0711 9.76139 17.1796 9.5022 17.1796 9.20068C17.1796 8.90446 17.0738 8.65055 16.8622 8.43896C16.6506 8.22738 16.3967 8.12158 16.1005 8.12158C15.8095 8.12158 15.5556 8.23002 15.3387 8.4469C15.1272 8.65849 15.0214 8.91504 15.0214 9.21655V10.2957H16.0846ZM11.2921 14.0328H13.7518V11.5176H11.2921V14.0328ZM8.95142 15.2548C8.6499 15.2548 8.39071 15.3632 8.17383 15.5801C7.96224 15.7917 7.85645 16.0482 7.85645 16.3497C7.85645 16.6407 7.96224 16.8946 8.17383 17.1115C8.39071 17.323 8.64461 17.4288 8.93555 17.4288C9.23177 17.4288 9.48568 17.323 9.69727 17.1115C9.91414 16.8946 10.0226 16.6327 10.0226 16.3259V15.2548H8.95142ZM16.0846 15.2548H15.0214V16.3259C15.0214 16.6327 15.1272 16.8946 15.3387 17.1115C15.5556 17.323 15.8095 17.4288 16.1005 17.4288C16.3967 17.4288 16.6506 17.323 16.8622 17.1115C17.0738 16.8946 17.1796 16.6407 17.1796 16.3497C17.1796 16.0482 17.0711 15.7917 16.8542 15.5801C16.6427 15.3632 16.3861 15.2548 16.0846 15.2548Z" fill="#D9D9D9"/>
<path d="M32.8135 14.2051V12.8447H40.2168V14.2051H32.8135ZM35.835 17.2402V9.80957H37.1953V17.2402H35.835Z" fill="#D9D9D9"/>
<rect x="48.5" y="0.5" width="25" height="25" rx="1.5" fill="#222222"/>
<rect x="48.5" y="0.5" width="25" height="25" rx="1.5" stroke="#414141"/>
<path d="M59.6259 18.5L55.5554 7.05042H57.4915L60.5463 16.3497H60.6812L63.736 7.05042H65.6799L61.6016 18.5H59.6259Z" fill="#D9D9D9"/>
</svg>
