<svg width="70" height="26" viewBox="0 0 70 26" fill="none" xmlns="http://www.w3.org/2000/svg">
<rect x="0.5" y="0.5" width="68.5455" height="25" rx="1.5" fill="#222222"/>
<rect x="0.5" y="0.5" width="68.5455" height="25" rx="1.5" stroke="#414141"/>
<path d="M9.70886 18.5V7.05042H14.2236C15.0065 7.05042 15.6836 7.19588 16.2549 7.48682C16.8262 7.77246 17.2652 8.17712 17.572 8.70081C17.8841 9.2192 18.0402 9.8328 18.0402 10.5416V10.5575C18.0402 11.3298 17.8444 12.0095 17.453 12.5967C17.0616 13.1785 16.5167 13.5885 15.8185 13.8265L18.3813 18.5H16.3263L13.9935 14.0963C13.9777 14.0963 13.9618 14.0963 13.9459 14.0963C13.9301 14.0963 13.9142 14.0963 13.8983 14.0963H11.4862V18.5H9.70886ZM11.4862 12.6522H14.0491C14.7314 12.6522 15.2604 12.475 15.636 12.1206C16.0116 11.7609 16.1993 11.2557 16.1993 10.6051V10.5892C16.1993 9.95447 16.0036 9.45459 15.6122 9.0896C15.226 8.72461 14.6865 8.54211 13.9935 8.54211H11.4862V12.6522ZM23.7451 18.6666C22.9041 18.6666 22.182 18.4868 21.579 18.1271C20.976 17.7621 20.5105 17.2463 20.1825 16.5798C19.8598 15.9133 19.6985 15.1252 19.6985 14.2153V14.2074C19.6985 13.3081 19.8598 12.5226 20.1825 11.8508C20.5105 11.179 20.9707 10.6554 21.5631 10.2798C22.1608 9.90422 22.8591 9.71643 23.6578 9.71643C24.4619 9.71643 25.1522 9.89628 25.7288 10.256C26.3106 10.6157 26.7576 11.1208 27.0697 11.7715C27.3818 12.4168 27.5378 13.1733 27.5378 14.0408V14.6438H20.5713V13.4139H26.6809L25.8557 14.5565V13.8662C25.8557 13.2526 25.7605 12.7448 25.5701 12.3428C25.3849 11.9355 25.1284 11.6313 24.8004 11.4303C24.4725 11.2293 24.0942 11.1288 23.6658 11.1288C23.2373 11.1288 22.8538 11.2346 22.5153 11.4462C22.182 11.6525 21.9175 11.9593 21.7218 12.3666C21.5314 12.7739 21.4362 13.2738 21.4362 13.8662V14.5565C21.4362 15.1225 21.5314 15.6065 21.7218 16.0085C21.9122 16.4106 22.182 16.7174 22.5311 16.929C22.8855 17.1405 23.3034 17.2463 23.7848 17.2463C24.1551 17.2463 24.4725 17.1961 24.7369 17.0956C25.0067 16.9898 25.2262 16.8602 25.3955 16.7068C25.5701 16.5534 25.6891 16.4026 25.7526 16.2545L25.7843 16.191H27.4506L27.4347 16.2625C27.3606 16.5481 27.231 16.8337 27.0459 17.1194C26.8608 17.3997 26.6148 17.6563 26.308 17.889C26.0065 18.1218 25.6415 18.3096 25.213 18.4524C24.7898 18.5952 24.3005 18.6666 23.7451 18.6666ZM32.8381 18.5555C31.8966 18.5555 31.2142 18.3757 30.791 18.016C30.3731 17.651 30.1642 17.0559 30.1642 16.2307V11.2399H28.8153V9.88306H30.1642V7.70898H31.9257V9.88306H33.7744V11.2399H31.9257V15.8102C31.9257 16.2757 32.0182 16.6116 32.2034 16.8179C32.3885 17.0189 32.6953 17.1194 33.1238 17.1194C33.2507 17.1194 33.3592 17.1167 33.4491 17.1115C33.5443 17.1062 33.6528 17.0982 33.7744 17.0876V18.4683C33.6369 18.4894 33.4888 18.5079 33.3301 18.5238C33.1714 18.545 33.0074 18.5555 32.8381 18.5555ZM38.6621 18.6666C38.0168 18.6666 37.4719 18.5423 37.0276 18.2937C36.5885 18.0398 36.2579 17.6748 36.0358 17.1987C35.8189 16.7174 35.7104 16.1381 35.7104 15.4611V9.88306H37.4323V15.0564C37.4323 15.7652 37.5724 16.2968 37.8528 16.6512C38.1331 17.0057 38.5907 17.1829 39.2255 17.1829C39.564 17.1829 39.8655 17.1326 40.13 17.0321C40.3945 16.9263 40.6167 16.7756 40.7965 16.5798C40.9764 16.3841 41.1086 16.1487 41.1932 15.8737C41.2832 15.5986 41.3281 15.2865 41.3281 14.9374V9.88306H43.0579V18.5H41.3281V17.1987H41.2012C41.0636 17.5055 40.8759 17.77 40.6378 17.9922C40.3998 18.2091 40.1141 18.3757 39.7809 18.4921C39.4529 18.6084 39.08 18.6666 38.6621 18.6666ZM45.5334 18.5V9.88306H47.2552V11.1843H47.3901C47.5435 10.7241 47.8133 10.3671 48.1995 10.1132C48.5909 9.85925 49.0723 9.7323 49.6436 9.7323C49.7864 9.7323 49.9266 9.74023 50.0641 9.7561C50.2016 9.77197 50.3127 9.79049 50.3973 9.81165V11.3986C50.2439 11.3668 50.0905 11.343 49.9371 11.3271C49.789 11.3113 49.633 11.3033 49.469 11.3033C49.0299 11.3033 48.6438 11.388 48.3105 11.5573C47.9826 11.7265 47.7234 11.9646 47.533 12.2714C47.3478 12.5729 47.2552 12.9326 47.2552 13.3505V18.5H45.5334ZM52.1826 18.5V9.88306H53.9044V11.1843H54.0393C54.2509 10.7241 54.563 10.3644 54.9756 10.1052C55.3882 9.84603 55.9092 9.71643 56.5387 9.71643C57.5067 9.71643 58.2473 9.99414 58.7604 10.5496C59.2735 11.105 59.53 11.8958 59.53 12.922V18.5H57.8003V13.3267C57.8003 12.6073 57.6495 12.073 57.348 11.7239C57.0518 11.3695 56.5863 11.1923 55.9515 11.1923C55.5337 11.1923 55.1713 11.2848 54.8645 11.47C54.5577 11.6498 54.3197 11.909 54.1504 12.2476C53.9864 12.5808 53.9044 12.9802 53.9044 13.4457V18.5H52.1826Z" fill="#D9D9D9"/>
</svg>
